<?xml version="1.0" encoding="UTF-8"?>
<!DOCTYPE svg PUBLIC "-//W3C//DTD SVG 1.1//EN"
    "http://www.w3.org/Graphics/SVG/1.1/DTD/svg11.dtd"><svg xmlns="http://www.w3.org/2000/svg" height="429.4467" stroke-opacity="1" viewBox="0 0 800 429" font-size="1" width="800.0000" xmlns:xlink="http://www.w3.org/1999/xlink" stroke="rgb(0,0,0)" version="1.1"><defs></defs><g stroke-linejoin="miter" stroke-opacity="1.0" fill-opacity="0.0" stroke="rgb(0,0,0)" stroke-width="2.344550629654783" fill="rgb(0,0,0)" stroke-linecap="butt" stroke-miterlimit="10.0"><path d="M 564.6709,235.3291 l -66.8401,38.1511 "/></g><g stroke-linejoin="miter" stroke-opacity="1.0" fill-opacity="1.0" stroke="rgb(0,0,0)" stroke-width="0.0" fill="rgb(0,0,0)" stroke-linecap="butt" stroke-miterlimit="10.0"></g><g stroke-linejoin="miter" stroke-opacity="1.0" fill-opacity="1.0" stroke="rgb(0,0,0)" stroke-width="0.0" fill="rgb(0,0,0)" stroke-linecap="butt" stroke-miterlimit="10.0"></g><g stroke-linejoin="miter" stroke-opacity="1.0" fill-opacity="1.0" stroke="rgb(0,0,0)" stroke-width="0.0" fill="rgb(0,0,0)" stroke-linecap="butt" stroke-miterlimit="10.0"><path d="M 480.0140,283.6496 l 24.7070,-5.1242 l -7.4255,-4.7398 l -0.3051,-8.8040 Z"/></g><g stroke-linejoin="miter" stroke-opacity="1.0" fill-opacity="1.0" stroke="rgb(0,0,0)" stroke-width="0.0" fill="rgb(0,0,0)" stroke-linecap="butt" stroke-miterlimit="10.0"><path d="M 497.2956,273.7856 l 0.5352,-0.3055 l 0.5811,1.0181 l -1.1164,-0.7126 l 0.5352,-0.3055 l -0.5811,-1.0181 Z"/></g><g stroke-linejoin="miter" stroke-opacity="1.0" fill-opacity="0.0" stroke="rgb(0,0,0)" stroke-width="2.344550629654783" fill="rgb(0,0,0)" stroke-linecap="butt" stroke-miterlimit="10.0"><path d="M 564.6709,235.3291 l 54.4201,-54.4201 "/></g><g stroke-linejoin="miter" stroke-opacity="1.0" fill-opacity="1.0" stroke="rgb(0,0,0)" stroke-width="0.0" fill="rgb(0,0,0)" stroke-linecap="butt" stroke-miterlimit="10.0"></g><g stroke-linejoin="miter" stroke-opacity="1.0" fill-opacity="1.0" stroke="rgb(0,0,0)" stroke-width="0.0" fill="rgb(0,0,0)" stroke-linecap="butt" stroke-miterlimit="10.0"></g><g stroke-linejoin="miter" stroke-opacity="1.0" fill-opacity="1.0" stroke="rgb(0,0,0)" stroke-width="0.0" fill="rgb(0,0,0)" stroke-linecap="butt" stroke-miterlimit="10.0"><path d="M 633.5972,166.4028 l -22.4826,11.4555 l 8.4122,2.6149 l 2.6149,8.4122 Z"/></g><g stroke-linejoin="miter" stroke-opacity="1.0" fill-opacity="1.0" stroke="rgb(0,0,0)" stroke-width="0.0" fill="rgb(0,0,0)" stroke-linecap="butt" stroke-miterlimit="10.0"><path d="M 619.5268,180.4732 l -0.4358,0.4358 l -0.8289,-0.8289 l 1.2647,0.3931 l -0.4358,0.4358 l 0.8289,0.8289 Z"/></g><g stroke-linejoin="miter" stroke-opacity="1.0" fill-opacity="0.0" stroke="rgb(0,0,0)" stroke-width="2.344550629654783" fill="rgb(0,0,0)" stroke-linecap="butt" stroke-miterlimit="10.0"><path d="M 480.0140,283.6496 c 26.6867,46.7547 86.2227,63.0230 132.9775 36.3363c 46.7547,-26.6867 63.0230,-86.2227 36.3363 -132.9775c -4.3027,-7.5383 -9.5930,-14.4682 -15.7306 -20.6057"/></g><g stroke-linejoin="miter" stroke-opacity="1.0" fill-opacity="0.0" stroke="rgb(0,0,0)" stroke-width="2.344550629654783" fill="rgb(0,0,0)" stroke-linecap="butt" stroke-miterlimit="10.0"><path d="M 292.4295,166.4028 l -76.9617,0.0000 "/></g><g stroke-linejoin="miter" stroke-opacity="1.0" fill-opacity="1.0" stroke="rgb(0,0,0)" stroke-width="0.0" fill="rgb(0,0,0)" stroke-linecap="butt" stroke-miterlimit="10.0"></g><g stroke-linejoin="miter" stroke-opacity="1.0" fill-opacity="1.0" stroke="rgb(0,0,0)" stroke-width="0.0" fill="rgb(0,0,0)" stroke-linecap="butt" stroke-miterlimit="10.0"></g><g stroke-linejoin="miter" stroke-opacity="1.0" fill-opacity="1.0" stroke="rgb(0,0,0)" stroke-width="0.0" fill="rgb(0,0,0)" stroke-linecap="butt" stroke-miterlimit="10.0"><path d="M 194.9530,166.4028 l 23.9978,7.7974 l -4.0993,-7.7974 l 4.0993,-7.7974 Z"/></g><g stroke-linejoin="miter" stroke-opacity="1.0" fill-opacity="1.0" stroke="rgb(0,0,0)" stroke-width="0.0" fill="rgb(0,0,0)" stroke-linecap="butt" stroke-miterlimit="10.0"><path d="M 214.8515,166.4028 l 0.6163,-0.0000 l 0.0000,1.1723 l -0.6163,-1.1723 l 0.6163,-0.0000 l -0.0000,-1.1723 Z"/></g><g stroke-linejoin="miter" stroke-opacity="1.0" fill-opacity="0.0" stroke="rgb(0,0,0)" stroke-width="2.344550629654783" fill="rgb(0,0,0)" stroke-linecap="butt" stroke-miterlimit="10.0"><path d="M 292.4295,166.4028 l 40.6328,65.3611 "/></g><g stroke-linejoin="miter" stroke-opacity="1.0" fill-opacity="1.0" stroke="rgb(0,0,0)" stroke-width="0.0" fill="rgb(0,0,0)" stroke-linecap="butt" stroke-miterlimit="10.0"></g><g stroke-linejoin="miter" stroke-opacity="1.0" fill-opacity="1.0" stroke="rgb(0,0,0)" stroke-width="0.0" fill="rgb(0,0,0)" stroke-linecap="butt" stroke-miterlimit="10.0"></g><g stroke-linejoin="miter" stroke-opacity="1.0" fill-opacity="1.0" stroke="rgb(0,0,0)" stroke-width="0.0" fill="rgb(0,0,0)" stroke-linecap="butt" stroke-miterlimit="10.0"><path d="M 343.8933,249.1865 l -6.0479,-24.4973 l -4.4578,7.5981 l -8.7863,0.6353 Z"/></g><g stroke-linejoin="miter" stroke-opacity="1.0" fill-opacity="1.0" stroke="rgb(0,0,0)" stroke-width="0.0" fill="rgb(0,0,0)" stroke-linecap="butt" stroke-miterlimit="10.0"><path d="M 333.3877,232.2873 l -0.3254,-0.5234 l 0.9956,-0.6189 l -0.6702,1.1423 l -0.3254,-0.5234 l -0.9956,0.6189 Z"/></g><g stroke-linejoin="miter" stroke-opacity="1.0" fill-opacity="0.0" stroke="rgb(0,0,0)" stroke-width="2.344550629654783" fill="rgb(0,0,0)" stroke-linecap="butt" stroke-miterlimit="10.0"><path d="M 194.9530,166.4028 c 0.0000,53.8348 43.6417,97.4765 97.4765 97.4765c 18.1895,-0.0000 36.0161,-5.0895 51.4638 -14.6928"/></g><g stroke-linejoin="miter" stroke-opacity="1.0" fill-opacity="0.0" stroke="rgb(0,0,0)" stroke-width="2.344550629654783" fill="rgb(0,0,0)" stroke-linecap="butt" stroke-miterlimit="10.0"><path d="M 395.3571,331.9702 l 66.8401,-38.1511 "/></g><g stroke-linejoin="miter" stroke-opacity="1.0" fill-opacity="1.0" stroke="rgb(0,0,0)" stroke-width="0.0" fill="rgb(0,0,0)" stroke-linecap="butt" stroke-miterlimit="10.0"></g><g stroke-linejoin="miter" stroke-opacity="1.0" fill-opacity="1.0" stroke="rgb(0,0,0)" stroke-width="0.0" fill="rgb(0,0,0)" stroke-linecap="butt" stroke-miterlimit="10.0"></g><g stroke-linejoin="miter" stroke-opacity="1.0" fill-opacity="1.0" stroke="rgb(0,0,0)" stroke-width="0.0" fill="rgb(0,0,0)" stroke-linecap="butt" stroke-miterlimit="10.0"><path d="M 480.0140,283.6496 l -24.7070,5.1242 l 7.4255,4.7398 l 0.3051,8.8040 Z"/></g><g stroke-linejoin="miter" stroke-opacity="1.0" fill-opacity="1.0" stroke="rgb(0,0,0)" stroke-width="0.0" fill="rgb(0,0,0)" stroke-linecap="butt" stroke-miterlimit="10.0"><path d="M 462.7325,293.5136 l -0.5352,0.3055 l -0.5811,-1.0181 l 1.1164,0.7126 l -0.5352,0.3055 l 0.5811,1.0181 Z"/></g><g stroke-linejoin="miter" stroke-opacity="1.0" fill-opacity="0.0" stroke="rgb(0,0,0)" stroke-width="2.344550629654783" fill="rgb(0,0,0)" stroke-linecap="butt" stroke-miterlimit="10.0"><path d="M 395.3571,331.9702 l -40.6328,-65.3611 "/></g><g stroke-linejoin="miter" stroke-opacity="1.0" fill-opacity="1.0" stroke="rgb(0,0,0)" stroke-width="0.0" fill="rgb(0,0,0)" stroke-linecap="butt" stroke-miterlimit="10.0"></g><g stroke-linejoin="miter" stroke-opacity="1.0" fill-opacity="1.0" stroke="rgb(0,0,0)" stroke-width="0.0" fill="rgb(0,0,0)" stroke-linecap="butt" stroke-miterlimit="10.0"></g><g stroke-linejoin="miter" stroke-opacity="1.0" fill-opacity="1.0" stroke="rgb(0,0,0)" stroke-width="0.0" fill="rgb(0,0,0)" stroke-linecap="butt" stroke-miterlimit="10.0"><path d="M 343.8933,249.1865 l 6.0479,24.4973 l 4.4578,-7.5981 l 8.7863,-0.6353 Z"/></g><g stroke-linejoin="miter" stroke-opacity="1.0" fill-opacity="1.0" stroke="rgb(0,0,0)" stroke-width="0.0" fill="rgb(0,0,0)" stroke-linecap="butt" stroke-miterlimit="10.0"><path d="M 354.3990,266.0857 l 0.3254,0.5234 l -0.9956,0.6189 l 0.6702,-1.1423 l 0.3254,0.5234 l 0.9956,-0.6189 Z"/></g><g stroke-linejoin="miter" stroke-opacity="1.0" fill-opacity="0.0" stroke="rgb(0,0,0)" stroke-width="2.344550629654783" fill="rgb(0,0,0)" stroke-linecap="butt" stroke-miterlimit="10.0"><path d="M 480.0140,283.6496 c -26.6867,-46.7547 -86.2227,-63.0230 -132.9775 -36.3363c -1.0594,0.6047 -2.1073,1.2292 -3.1433 1.8732"/></g><g stroke-linejoin="miter" stroke-opacity="1.0" fill-opacity="0.0" opacity="0.4" stroke="rgb(0,128,0)" stroke-width="2.344550629654783" fill="rgb(0,0,0)" stroke-linecap="butt" stroke-miterlimit="10.0"><path d="M 492.8336,331.9702 c 0.0000,-53.8348 -43.6417,-97.4765 -97.4765 -97.4765c -53.8348,-0.0000 -97.4765,43.6417 -97.4765 97.4765c -0.0000,53.8348 43.6417,97.4765 97.4765 97.4765c 53.8348,0.0000 97.4765,-43.6417 97.4765 -97.4765Z"/></g><g stroke-linejoin="miter" stroke-opacity="1.0" fill-opacity="0.0" stroke="rgb(0,0,0)" stroke-width="2.344550629654783" fill="rgb(0,0,0)" stroke-linecap="butt" stroke-miterlimit="10.0"><path d="M 565.6457,235.3291 c 0.0000,-0.5383 -0.4364,-0.9748 -0.9748 -0.9748c -0.5383,-0.0000 -0.9748,0.4364 -0.9748 0.9748c -0.0000,0.5383 0.4364,0.9748 0.9748 0.9748c 0.5383,0.0000 0.9748,-0.4364 0.9748 -0.9748Z"/></g><g stroke-linejoin="miter" stroke-opacity="1.0" fill-opacity="0.0" stroke="rgb(255,0,0)" stroke-width="2.344550629654783" fill="rgb(0,0,0)" stroke-linecap="butt" stroke-miterlimit="10.0"><path d="M 293.4042,166.4028 c 0.0000,-0.5383 -0.4364,-0.9748 -0.9748 -0.9748c -0.5383,-0.0000 -0.9748,0.4364 -0.9748 0.9748c -0.0000,0.5383 0.4364,0.9748 0.9748 0.9748c 0.5383,0.0000 0.9748,-0.4364 0.9748 -0.9748Z"/></g><g stroke-linejoin="miter" stroke-opacity="1.0" fill-opacity="0.0" opacity="0.2" stroke="rgb(0,0,0)" stroke-width="2.344550629654783" fill="rgb(0,0,0)" stroke-linecap="butt" stroke-miterlimit="10.0"><path d="M 564.6709,235.3291 l -169.3138,96.6411 "/></g><g stroke-linejoin="miter" stroke-opacity="1.0" fill-opacity="0.0" opacity="0.2" stroke="rgb(0,0,0)" stroke-width="2.344550629654783" fill="rgb(0,0,0)" stroke-linecap="butt" stroke-miterlimit="10.0"><path d="M 292.4295,166.4028 l 102.9276,165.5674 "/></g><g stroke-linejoin="miter" stroke-opacity="1.0" fill-opacity="0.0" opacity="0.2" stroke="rgb(0,0,0)" stroke-width="2.344550629654783" fill="rgb(0,0,0)" stroke-linecap="butt" stroke-miterlimit="10.0"><path d="M 292.4295,166.4028 l 272.2414,68.9263 "/></g><g stroke-linejoin="miter" stroke-opacity="1.0" fill-opacity="0.0" opacity="0.4" stroke="rgb(0,0,0)" stroke-width="2.344550629654783" fill="rgb(0,0,0)" stroke-linecap="butt" stroke-miterlimit="10.0"><path d="M 633.5972,166.4028 l 68.9263,68.9263 "/></g><g stroke-linejoin="miter" stroke-opacity="1.0" fill-opacity="0.0" opacity="0.4" stroke="rgb(0,0,0)" stroke-width="2.344550629654783" fill="rgb(0,0,0)" stroke-linecap="butt" stroke-miterlimit="10.0"><path d="M 633.5972,304.2554 c 38.0669,-38.0669 38.0669,-99.7856 0.0000 -137.8526c -38.0669,-38.0669 -99.7856,-38.0669 -137.8526 -0.0000c -38.0669,38.0669 -38.0669,99.7856 -0.0000 137.8526c 38.0669,38.0669 99.7856,38.0669 137.8526 0.0000Z"/></g><g stroke-linejoin="miter" stroke-opacity="1.0" fill-opacity="0.0" opacity="0.4" stroke="rgb(0,0,0)" stroke-width="2.344550629654783" fill="rgb(0,0,0)" stroke-linecap="butt" stroke-miterlimit="10.0"><path d="M 771.4498,166.4028 c 38.0669,-38.0669 38.0669,-99.7856 0.0000 -137.8526c -38.0669,-38.0669 -99.7856,-38.0669 -137.8526 -0.0000c -38.0669,38.0669 -38.0669,99.7856 -0.0000 137.8526c 38.0669,38.0669 99.7856,38.0669 137.8526 0.0000Z"/></g><g stroke-linejoin="miter" stroke-opacity="1.0" fill-opacity="0.0" opacity="0.4" stroke="rgb(0,0,0)" stroke-width="2.344550629654783" fill="rgb(0,0,0)" stroke-linecap="butt" stroke-miterlimit="10.0"><path d="M 194.9530,166.4028 l 0.0000,97.4765 "/></g><g stroke-linejoin="miter" stroke-opacity="1.0" fill-opacity="0.0" opacity="0.4" stroke="rgb(0,0,0)" stroke-width="2.344550629654783" fill="rgb(0,0,0)" stroke-linecap="butt" stroke-miterlimit="10.0"><path d="M 97.4765,263.8793 c 53.8348,-0.0000 97.4765,-43.6417 97.4765 -97.4765c 0.0000,-53.8348 -43.6417,-97.4765 -97.4765 -97.4765c -53.8348,-0.0000 -97.4765,43.6417 -97.4765 97.4765c -0.0000,53.8348 43.6417,97.4765 97.4765 97.4765Z"/></g><g stroke-linejoin="miter" stroke-opacity="1.0" fill-opacity="0.0" opacity="0.4" stroke="rgb(0,0,0)" stroke-width="2.344550629654783" fill="rgb(0,0,0)" stroke-linecap="butt" stroke-miterlimit="10.0"><path d="M 292.4295,263.8793 c 53.8348,-0.0000 97.4765,-43.6417 97.4765 -97.4765c 0.0000,-53.8348 -43.6417,-97.4765 -97.4765 -97.4765c -53.8348,-0.0000 -97.4765,43.6417 -97.4765 97.4765c -0.0000,53.8348 43.6417,97.4765 97.4765 97.4765Z"/></g><g stroke-linejoin="miter" stroke-opacity="1.0" fill-opacity="1.0" stroke="rgb(0,0,0)" stroke-width="0.0" fill="rgb(255,0,0)" stroke-linecap="butt" stroke-miterlimit="10.0"><path d="M 210.9530,166.4028 c 0.0000,-8.8366 -7.1634,-16.0000 -16.0000 -16.0000c -8.8366,-0.0000 -16.0000,7.1634 -16.0000 16.0000c -0.0000,8.8366 7.1634,16.0000 16.0000 16.0000c 8.8366,0.0000 16.0000,-7.1634 16.0000 -16.0000Z"/></g></svg>