<?xml version="1.0" encoding="UTF-8"?>
<!DOCTYPE svg PUBLIC "-//W3C//DTD SVG 1.1//EN"
    "http://www.w3.org/Graphics/SVG/1.1/DTD/svg11.dtd"><svg xmlns="http://www.w3.org/2000/svg" height="360.5204" stroke-opacity="1" viewBox="0 0 800 361" font-size="1" width="800.0000" xmlns:xlink="http://www.w3.org/1999/xlink" stroke="rgb(0,0,0)" version="1.1"><defs></defs><g stroke-linejoin="miter" stroke-opacity="1.0" fill-opacity="0.0" stroke="rgb(0,0,0)" stroke-width="2.148176235440222" fill="rgb(0,0,0)" stroke-linecap="butt" stroke-miterlimit="10.0"><path d="M 513.2071,180.2602 c 38.4744,-23.9182 88.3561,-18.1766 120.3901 13.8574"/></g><g stroke-linejoin="miter" stroke-opacity="1.0" fill-opacity="0.0" stroke="rgb(0,0,0)" stroke-width="2.148176235440222" fill="rgb(0,0,0)" stroke-linecap="butt" stroke-miterlimit="10.0"><path d="M 194.9530,194.1176 c -0.0000,-34.9971 18.7615,-67.3083 49.1559 -84.6569c 46.7547,-26.6867 106.2908,-10.4184 132.9775 36.3363"/></g><g stroke-linejoin="miter" stroke-opacity="1.0" fill-opacity="0.0" stroke="rgb(0,0,0)" stroke-width="2.148176235440222" fill="rgb(0,0,0)" stroke-linecap="butt" stroke-miterlimit="10.0"><path d="M 513.2071,180.2602 c -1.0359,0.6440 -2.0839,1.2685 -3.1433 1.8732c -46.7547,26.6867 -106.2908,10.4184 -132.9775 -36.3363"/></g><g stroke-linejoin="miter" stroke-opacity="1.0" fill-opacity="0.0" opacity="0.4" stroke="rgb(0,128,0)" stroke-width="2.148176235440222" fill="rgb(0,0,0)" stroke-linecap="butt" stroke-miterlimit="10.0"><path d="M 559.2198,97.4765 c 0.0000,-53.8348 -43.6417,-97.4765 -97.4765 -97.4765c -53.8348,-0.0000 -97.4765,43.6417 -97.4765 97.4765c -0.0000,53.8348 43.6417,97.4765 97.4765 97.4765c 53.8348,0.0000 97.4765,-43.6417 97.4765 -97.4765Z"/></g><g stroke-linejoin="miter" stroke-opacity="1.0" fill-opacity="0.0" stroke="rgb(0,0,0)" stroke-width="2.148176235440222" fill="rgb(0,0,0)" stroke-linecap="butt" stroke-miterlimit="10.0"><path d="M 565.6457,263.0439 c 0.0000,-0.5383 -0.4364,-0.9748 -0.9748 -0.9748c -0.5383,-0.0000 -0.9748,0.4364 -0.9748 0.9748c -0.0000,0.5383 0.4364,0.9748 0.9748 0.9748c 0.5383,0.0000 0.9748,-0.4364 0.9748 -0.9748Z"/></g><g stroke-linejoin="miter" stroke-opacity="1.0" fill-opacity="0.0" stroke="rgb(0,0,0)" stroke-width="2.148176235440222" fill="rgb(0,0,0)" stroke-linecap="butt" stroke-miterlimit="10.0"><path d="M 293.4042,194.1176 c 0.0000,-0.5383 -0.4364,-0.9748 -0.9748 -0.9748c -0.5383,-0.0000 -0.9748,0.4364 -0.9748 0.9748c -0.0000,0.5383 0.4364,0.9748 0.9748 0.9748c 0.5383,0.0000 0.9748,-0.4364 0.9748 -0.9748Z"/></g><g stroke-linejoin="miter" stroke-opacity="1.0" fill-opacity="0.0" opacity="0.2" stroke="rgb(0,0,0)" stroke-width="2.148176235440222" fill="rgb(0,0,0)" stroke-linecap="butt" stroke-miterlimit="10.0"><path d="M 564.6709,263.0439 l -102.9276,-165.5674 "/></g><g stroke-linejoin="miter" stroke-opacity="1.0" fill-opacity="0.0" opacity="0.2" stroke="rgb(0,0,0)" stroke-width="2.148176235440222" fill="rgb(0,0,0)" stroke-linecap="butt" stroke-miterlimit="10.0"><path d="M 292.4295,194.1176 l 169.3138,-96.6411 "/></g><g stroke-linejoin="miter" stroke-opacity="1.0" fill-opacity="0.0" opacity="0.2" stroke="rgb(0,0,0)" stroke-width="2.148176235440222" fill="rgb(0,0,0)" stroke-linecap="butt" stroke-miterlimit="10.0"><path d="M 292.4295,194.1176 l 272.2414,68.9263 "/></g><g stroke-linejoin="miter" stroke-opacity="1.0" fill-opacity="0.0" opacity="0.4" stroke="rgb(0,0,0)" stroke-width="2.148176235440222" fill="rgb(0,0,0)" stroke-linecap="butt" stroke-miterlimit="10.0"><path d="M 633.5972,194.1176 l 68.9263,68.9263 "/></g><g stroke-linejoin="miter" stroke-opacity="1.0" fill-opacity="0.0" opacity="0.4" stroke="rgb(0,0,0)" stroke-width="2.148176235440222" fill="rgb(0,0,0)" stroke-linecap="butt" stroke-miterlimit="10.0"><path d="M 633.5972,331.9702 c 38.0669,-38.0669 38.0669,-99.7856 0.0000 -137.8526c -38.0669,-38.0669 -99.7856,-38.0669 -137.8526 -0.0000c -38.0669,38.0669 -38.0669,99.7856 -0.0000 137.8526c 38.0669,38.0669 99.7856,38.0669 137.8526 0.0000Z"/></g><g stroke-linejoin="miter" stroke-opacity="1.0" fill-opacity="0.0" opacity="0.4" stroke="rgb(0,0,0)" stroke-width="2.148176235440222" fill="rgb(0,0,0)" stroke-linecap="butt" stroke-miterlimit="10.0"><path d="M 771.4498,194.1176 c 38.0669,-38.0669 38.0669,-99.7856 0.0000 -137.8526c -38.0669,-38.0669 -99.7856,-38.0669 -137.8526 -0.0000c -38.0669,38.0669 -38.0669,99.7856 -0.0000 137.8526c 38.0669,38.0669 99.7856,38.0669 137.8526 0.0000Z"/></g><g stroke-linejoin="miter" stroke-opacity="1.0" fill-opacity="0.0" opacity="0.4" stroke="rgb(0,0,0)" stroke-width="2.148176235440222" fill="rgb(0,0,0)" stroke-linecap="butt" stroke-miterlimit="10.0"><path d="M 194.9530,194.1176 l 0.0000,-97.4765 "/></g><g stroke-linejoin="miter" stroke-opacity="1.0" fill-opacity="0.0" opacity="0.4" stroke="rgb(0,0,0)" stroke-width="2.148176235440222" fill="rgb(0,0,0)" stroke-linecap="butt" stroke-miterlimit="10.0"><path d="M 292.4295,96.6411 c -53.8348,-0.0000 -97.4765,43.6417 -97.4765 97.4765c -0.0000,53.8348 43.6417,97.4765 97.4765 97.4765c 53.8348,0.0000 97.4765,-43.6417 97.4765 -97.4765c 0.0000,-53.8348 -43.6417,-97.4765 -97.4765 -97.4765Z"/></g><g stroke-linejoin="miter" stroke-opacity="1.0" fill-opacity="0.0" opacity="0.4" stroke="rgb(0,0,0)" stroke-width="2.148176235440222" fill="rgb(0,0,0)" stroke-linecap="butt" stroke-miterlimit="10.0"><path d="M 97.4765,96.6411 c -53.8348,-0.0000 -97.4765,43.6417 -97.4765 97.4765c -0.0000,53.8348 43.6417,97.4765 97.4765 97.4765c 53.8348,0.0000 97.4765,-43.6417 97.4765 -97.4765c 0.0000,-53.8348 -43.6417,-97.4765 -97.4765 -97.4765Z"/></g><g stroke-linejoin="miter" stroke-opacity="1.0" fill-opacity="1.0" stroke="rgb(0,0,0)" stroke-width="0.0" fill="rgb(255,0,0)" stroke-linecap="butt" stroke-miterlimit="10.0"><path d="M 210.9530,194.1176 c 0.0000,-8.8366 -7.1634,-16.0000 -16.0000 -16.0000c -8.8366,-0.0000 -16.0000,7.1634 -16.0000 16.0000c -0.0000,8.8366 7.1634,16.0000 16.0000 16.0000c 8.8366,0.0000 16.0000,-7.1634 16.0000 -16.0000Z"/></g></svg>