<?xml version="1.0" encoding="UTF-8"?>
<!DOCTYPE svg PUBLIC "-//W3C//DTD SVG 1.1//EN"
    "http://www.w3.org/Graphics/SVG/1.1/DTD/svg11.dtd"><svg xmlns="http://www.w3.org/2000/svg" height="203.4021" stroke-opacity="1" viewBox="0 0 400 203" font-size="1" width="400.0000" xmlns:xlink="http://www.w3.org/1999/xlink" stroke="rgb(0,0,0)" version="1.1"><defs></defs><g stroke-linejoin="miter" stroke-opacity="1.0" fill-opacity="0.0" stroke="rgb(0,0,255)" stroke-width="1.1409528474981732" fill="rgb(0,0,0)" stroke-linecap="butt" stroke-miterlimit="10.0"><path d="M 38.2614,77.8610 l 298.2905,-76.2758 "/></g><g stroke-linejoin="miter" stroke-opacity="1.0" fill-opacity="0.0" opacity="0.2" stroke="rgb(0,0,0)" stroke-width="1.1409528474981732" fill="rgb(0,0,0)" stroke-linecap="butt" stroke-miterlimit="10.0"><path d="M 50.8590,127.1263 l 298.2905,-76.2758 "/></g><g stroke-linejoin="miter" stroke-opacity="1.0" fill-opacity="0.0" opacity="0.4" stroke="rgb(0,0,0)" stroke-width="1.1409528474981732" fill="rgb(0,0,0)" stroke-linecap="butt" stroke-miterlimit="10.0"><path d="M 349.1495,101.7010 l -50.8505,-0.0000 "/></g><g stroke-linejoin="miter" stroke-opacity="1.0" fill-opacity="0.0" opacity="0.4" stroke="rgb(0,0,0)" stroke-width="1.1409528474981732" fill="rgb(0,0,0)" stroke-linecap="butt" stroke-miterlimit="10.0"><path d="M 298.2990,50.8505 c -0.0000,28.0840 22.7666,50.8505 50.8505 50.8505c 28.0840,0.0000 50.8505,-22.7666 50.8505 -50.8505c 0.0000,-28.0840 -22.7666,-50.8505 -50.8505 -50.8505c -28.0840,-0.0000 -50.8505,22.7666 -50.8505 50.8505Z"/></g><g stroke-linejoin="miter" stroke-opacity="1.0" fill-opacity="0.0" opacity="0.4" stroke="rgb(0,0,0)" stroke-width="1.1409528474981732" fill="rgb(0,0,0)" stroke-linecap="butt" stroke-miterlimit="10.0"><path d="M 298.2990,152.5516 c -0.0000,28.0840 22.7666,50.8505 50.8505 50.8505c 28.0840,0.0000 50.8505,-22.7666 50.8505 -50.8505c 0.0000,-28.0840 -22.7666,-50.8505 -50.8505 -50.8505c -28.0840,-0.0000 -50.8505,22.7666 -50.8505 50.8505Z"/></g><g stroke-linejoin="miter" stroke-opacity="1.0" fill-opacity="0.0" opacity="0.4" stroke="rgb(0,0,0)" stroke-width="1.1409528474981732" fill="rgb(0,0,0)" stroke-linecap="butt" stroke-miterlimit="10.0"><path d="M 94.8969,101.7010 l 25.4253,44.0378 "/></g><g stroke-linejoin="miter" stroke-opacity="1.0" fill-opacity="0.0" opacity="0.4" stroke="rgb(0,0,0)" stroke-width="1.1409528474981732" fill="rgb(0,0,0)" stroke-linecap="butt" stroke-miterlimit="10.0"><path d="M 76.2843,171.1642 c 24.3214,-14.0420 32.6546,-45.1417 18.6126 -69.4631c -14.0420,-24.3214 -45.1417,-32.6546 -69.4631 -18.6126c -24.3214,14.0420 -32.6546,45.1417 -18.6126 69.4631c 14.0420,24.3214 45.1417,32.6546 69.4631 18.6126Z"/></g><g stroke-linejoin="miter" stroke-opacity="1.0" fill-opacity="0.0" opacity="0.4" stroke="rgb(0,0,0)" stroke-width="1.1409528474981732" fill="rgb(0,0,0)" stroke-linecap="butt" stroke-miterlimit="10.0"><path d="M 164.3600,120.3136 c 24.3214,-14.0420 32.6546,-45.1417 18.6126 -69.4631c -14.0420,-24.3214 -45.1417,-32.6546 -69.4631 -18.6126c -24.3214,14.0420 -32.6546,45.1417 -18.6126 69.4631c 14.0420,24.3214 45.1417,32.6546 69.4631 18.6126Z"/></g><g stroke-linejoin="miter" stroke-opacity="1.0" fill-opacity="1.0" stroke="rgb(0,0,0)" stroke-width="0.0" fill="rgb(255,0,0)" stroke-linecap="butt" stroke-miterlimit="10.0"><path d="M 102.8969,101.7010 c 0.0000,-4.4183 -3.5817,-8.0000 -8.0000 -8.0000c -4.4183,-0.0000 -8.0000,3.5817 -8.0000 8.0000c -0.0000,4.4183 3.5817,8.0000 8.0000 8.0000c 4.4183,0.0000 8.0000,-3.5817 8.0000 -8.0000Z"/></g></svg>